<svg xmlns="http://www.w3.org/2000/svg" id="图层_1" data-name="图层 1" viewBox="0 0 733.19 549.96"><defs><style>.cls-1{fill:none;}.cls-2{fill:#100d0c;}.cls-3{fill:#eb661d;}.cls-4{fill:#898989;}</style></defs><title>Maxcell-white</title><path class="cls-1" d="M58.86,573.45V23.5H792.05v550Zm345.92-381.9a5.07,5.07,0,0,1-.16-2.81c.68-5.1.83-10.23,1.21-15.35a169.14,169.14,0,0,0-1.29-40,70.17,70.17,0,0,0-6.79-21.48A43.11,43.11,0,0,0,374.88,91.1c-7.24-2.88-14.75-3.73-22.41-4.15a16.41,16.41,0,0,0-6,.75c-2.94.95-5.85,2-8.71,3.14-10.1,4.06-19.24,9.88-28.3,15.79-16.15,10.54-30.33,23.4-43.36,37.56a485.15,485.15,0,0,0-38.19,47.52,659.1,659.1,0,0,0-53.26,88.74A359.15,359.15,0,0,0,154,330.52c-3.51,11-6.71,22-9.95,33a171.17,171.17,0,0,0-5.48,24.31c-1.27,9-2.49,18-3.73,27-.13.92-.43,1.87.52,2.94.71-2.25,1.33-4.24,2-6.24a243.15,243.15,0,0,1,13.21-32.14c8.07-16.64,17.26-32.65,26.87-48.42,16.17-26.54,32.48-53,51.68-77.51,13.11-16.76,27.14-32.62,43.77-46,13.13-10.56,26.7-20.5,41.89-28,8.72-4.3,17.74-7.66,27.56-8.34,6.6-.46,12.93.4,18.86,3.5,4.19,2.19,7.5,5.46,10.82,8.71a53.41,53.41,0,0,1,15.25,28.45,11,11,0,0,1-.75,7.08,58.56,58.56,0,0,1-5,8.83c-3.73,5.3-7.91,10.29-11.34,15.81a425.75,425.75,0,0,0-26,49.17A367,367,0,0,0,328.57,333c-3.17,9.95-6.08,20-9,30-1.33,4.54-2.74,9.08-3.7,13.71-2,9.56-3.7,19.19-5.53,28.78a42.11,42.11,0,0,0-.87,10.39c0,.7-.3,1.75.84,1.82.91.05.81-.89,1-1.52,1.76-6.13,3.77-12.18,6.11-18.12a298.58,298.58,0,0,1,20.88-42q22.61-38.41,47.45-75.43a408.41,408.41,0,0,1,34.76-45c14.42-16.11,30.95-29.8,48.35-42.51,9.39-6.86,19.11-13.17,30.08-17.26,9-3.35,18.19-5.22,27.85-3.34A38.1,38.1,0,0,1,549,185.06c8.12,9.44,12.07,20.82,14.49,32.8,1.28,6.35,2.13,12.79,3.28,19.17.23,1.28.15,2.73,1.12,3.84,1-.56,1-1.68,1.24-2.54,1.44-5.62,2.88-11.25,4.1-16.92,1.77-8.23,3.23-16.52,5-24.73a142.53,142.53,0,0,0,3.28-23.85c.73-14.95.12-29.81-3.49-44.44-2.5-10.15-6.17-19.78-12.7-28.05-9-11.44-21.08-16.1-35.39-14.35-9.36,1.14-18.14,4.51-26.55,8.79A177.34,177.34,0,0,0,473,114.88a289,289,0,0,0-37.58,36.7c-7,8.14-13.33,16.86-19.77,25.47C412.15,181.77,408.61,186.46,404.78,191.56ZM724.18,100l-.76-.16c-.85,2.52-1.65,5.06-2.56,7.55-5.36,14.66-12.43,28.51-20.16,42-8.7,15.21-18.26,29.88-27.56,44.72-14.44,23-28.7,46.2-45.25,67.83A280.84,280.84,0,0,1,601,292.78a318.94,318.94,0,0,1-47.85,38.11c-10,6.56-20.68,11.52-32.69,13.35a40.35,40.35,0,0,1-18-1.33,38.16,38.16,0,0,1-19.65-13.19c-7.25-9.32-10.79-20.2-13.32-31.48a125.39,125.39,0,0,1-1.93-14.08c-.29-2.65-1-5.24-1-8.34a4.48,4.48,0,0,0-1.75,2.7,194.39,194.39,0,0,0-5.87,22.09c-1.33,6.62-3.06,13.17-4.33,19.8a179.91,179.91,0,0,0-2.74,23,162.47,162.47,0,0,0,2.42,40.17A96.21,96.21,0,0,0,461.12,406c3.62,7.89,8.65,14.67,15.9,19.57,8.72,5.9,18.49,6.4,28.42,4.71a75.42,75.42,0,0,0,18.35-6.06,144.9,144.9,0,0,0,33.26-21.52,421.31,421.31,0,0,0,31.18-29.6,458,458,0,0,0,36.93-43.3,512.53,512.53,0,0,0,30.06-44.49,602.72,602.72,0,0,0,41.49-83.17c4.78-11.71,9.11-23.59,12.88-35.65q3.71-11.87,6.74-23.94c1.58-6.26,3-12.57,4.23-18.91s2.32-12.92,3.37-19.4A40.47,40.47,0,0,0,724.18,100ZM407.62,516.09a2.33,2.33,0,0,0-.89-1.94l-8.33-8.92Q383.31,489.1,368.19,473c-.93-1-1.27-1.7-.23-2.89,2.62-3,5.05-6.13,7.64-9.13,5.25-6.09,10.75-12,15.79-18.23,13.15-16.32,26.15-32.75,38.84-49.39-.48-.13-.82.29-1.16.58-2.06,1.74-4.07,3.53-6,5.4-6.57,6.3-13.6,12.1-20.43,18.12-7.05,6.21-14.13,12.39-20.79,19-7.9,7.86-15.49,16-23.17,24.1-1.89,2-2,2-3.86.11q-4.09-4.13-8-8.42-6.86-7.51-13.62-15.11a6.41,6.41,0,0,0-4.54-2.1c-5.23-.53-10.43,0-15.64.15-1.08,0-2.28-.29-3.28.38.1.8.64,1.11,1,1.51,11.86,11.71,22.92,24.19,34.74,35.95,1.75,1.74,1.74,1.81.19,3.5q-17,18.51-34,37c-.41.45-1.24.7-.92,1.69a130.49,130.49,0,0,0,15.59.17,4.41,4.41,0,0,0,3.51-1.55c3.1-3.6,6.33-7.08,9.44-10.66,4.89-5.63,9.7-11.33,14.58-17,1.47-1.69,1.63-1.68,3.23-.23s3.15,2.88,4.66,4.38c7.71,7.63,15.58,15.12,22.68,23.33a7,7,0,0,0,6.07,2.64c3.38-.17,6.78,0,10.17-.07C403,516.26,405.29,516.16,407.62,516.09ZM547.85,258.72c.12-17.36-14.17-30.39-29.94-30.78a30.7,30.7,0,1,0,29.94,30.78ZM191.59,471.91l.53.11c0,.74,0,1.49,0,2.23,0,8.24,0,16.47.05,24.71,0,3.58.11,7.17.15,10.75,0,1.05.17,2,1.48,2.05,3.18.18,6.36.59,9.55.1.88-.14,1.45-.48,1.39-1.48,0-.58,0-1.16,0-1.74q0-27.62,0-55.23c0-.58,0-1.16,0-1.74a1.24,1.24,0,0,0-1.33-1.48c-2.41-.17-4.81-.51-7.24-.47a4.47,4.47,0,0,0-3.71,1.89c-1.65,2.15-3.42,4.21-5.09,6.35q-10.44,13.41-20.85,26.84c-1.52,2-1.61,2-3.13,0-3.77-4.8-7.48-9.63-11.22-14.46-4.74-6.12-9.43-12.29-14.31-18.31a5.15,5.15,0,0,0-4.44-2.17c-2.22.07-4.45.3-6.67.32-1.34,0-1.6.67-1.61,1.81-.08,7.56-.23,15.11-.28,22.67-.05,8,0,16.08,0,24.12,0,3.68-.14,7.36-.21,11,0,.77-.15,1.71.94,1.81a53.45,53.45,0,0,0,10.13.22c.85-.08,1.13-.6,1.14-1.38,0-1.07,0-2.13,0-3.2q.25-16.57.51-33.13c0-.62-.35-1.36.46-1.9.62,0,.88.6,1.22,1q5.82,7.43,11.63,14.88,6.09,7.78,12.21,15.53c1.57,2,1.62,2,3.3-.06,2.46-3,4.92-6,7.33-9Q182.58,483.28,191.59,471.91Zm323.29,14.6a12.22,12.22,0,0,1,1.38-.2c6.1-.09,12.21-.19,18.31-.22,2.42,0,4.84.1,7.26.22,1.49.07,2.1-.5,2-2-.09-2.71,0-5.42-.07-8.14,0-2.35-.06-2.39-2.49-2.41-4.46,0-8.92,0-13.37,0-3.68-.05-7.35-.19-11-.4-2-.11-2-.2-2-2.23s0-4.26,0-6.4c0-3.09-.48-3.15,3.15-3.13,11.53.06,23.06.14,34.58.16a52.15,52.15,0,0,0,9.54-.65c2.22-.41,2.56-.83,2.62-3.09,0-1.94,0-3.88-.09-5.81-.11-2.9-.13-2.9-3-2.93H560c-13.66.07-27.32.2-41,0-4.55-.06-9.11,0-13.66,0a5.14,5.14,0,0,0-5.11,3.54,9.28,9.28,0,0,0-.64,3.69c0,16.09-.06,32.17,0,48.26,0,5,2.1,7.05,7.07,7.05H561c.68,0,1.36,0,2,0a1.46,1.46,0,0,0,1.63-1.6c0-2.13.19-4.26.16-6.39,0-3.62-.84-4.48-4.44-4.49-13,0-26,0-39,0-1.45,0-2.91-.11-4.36-.07-1.23,0-1.71-.44-1.74-1.69C515.23,493.93,515,490.36,514.88,486.51Zm-57.82,12.67h-8.8c-9.2,0-18.41,0-27.61,0-1.23,0-1.95-.12-1.93-1.69.12-11,0-22.09.53-33.13.09-2,.24-2.08,2.27-2.11q15.54-.24,31.07-.43c4.6-.05,4.63,0,4.43,4.68-.08,1.74-.3,3.47-.43,5.21-.08,1,.24,1.87,1.4,1.69,3.92-.61,7.82-1.31,11.73-2,1.21-.21,1.45-1,1.38-2.11-.22-3.77-.42-7.55-.45-11.32a6,6,0,0,0-2.29-4.77,17,17,0,0,0-11.57-3.87q-19.76,0-39.52.19a37.64,37.64,0,0,0-4,.42c-6,.7-10.17,5.33-10,12,.37,12.78.63,25.57.09,38.36a9.14,9.14,0,0,0,.55,3.7c2,5.31,5.93,8.22,11.77,8.1,7.94-.17,15.88-.23,23.82-.23,4.84,0,9.7-.15,14.53.06a33.2,33.2,0,0,0,7.51-.28,15.33,15.33,0,0,0,8.84-4.56,5.61,5.61,0,0,0,1.69-3.92c-.08-3.87-.29-7.74-.46-11.61a1.57,1.57,0,0,0-1.57-1.72c-3.58-.32-7-1.34-10.55-2-2.29-.41-2.28-.39-2.58,2A39.18,39.18,0,0,0,457.06,499.19ZM224.49,511.06a1.35,1.35,0,0,0,1.39.71c3.19.2,6.39,0,9.57.09a4.76,4.76,0,0,0,5-3c1.37-2.66,3.1-5.13,4.53-7.76a3.22,3.22,0,0,1,3.23-1.88q17.28.08,34.56,0a3.15,3.15,0,0,1,3.07,1.67c1.79,3,3.86,5.8,5.57,8.82a4.42,4.42,0,0,0,4.72,2.5c3.08-.24,6.18-.3,9.26-.45.65,0,1.39.18,1.78-.54,0-.57-.32-.93-.55-1.35q-7.62-13.51-15.24-27c-5.86-10.34-11.78-20.65-17.56-31a3.49,3.49,0,0,0-3.65-2.13,58.11,58.11,0,0,1-7.55,0c-2.27-.18-3.42.74-4.52,2.68Q242.58,479.76,226.91,507C226.1,508.42,225.25,509.79,224.49,511.06Zm447.94-30H673q0,13.95,0,27.9c0,2.76,0,2.76,2.62,2.79,4.07.05,8.14.15,12.2.14q21.65,0,43.3-.14c.39,0,.78,0,1.16,0,1,0,1.38-.47,1.43-1.41a35.3,35.3,0,0,0,0-7,3.5,3.5,0,0,0-3.74-3.22q-8-.14-16-.23c-7.84-.09-15.68-.21-23.52-.22-1.52,0-2.06-.47-2.05-2,0-4,0-7.94-.06-11.92q-.12-16.71-.25-33.42c0-2.08-.07-2.11-2.09-2.19a82.88,82.88,0,0,0-11,0c-2.46.23-2.49.15-2.49,2.69Q672.42,467,672.43,481.09ZM590,480.94h.35q0,14.24,0,28.48c0,2.21.1,2.3,2.27,2.34,4.36.08,8.71.16,13.07.15q21.36,0,42.71-.14c.48,0,1,0,1.45,0,.89,0,1.47-.41,1.46-1.41,0-2.23.12-4.46-.06-6.68a3.62,3.62,0,0,0-3.81-3.49c-3.48-.09-7-.19-10.45-.23-9.49-.1-19-.17-28.47-.26-2.51,0-2.54,0-2.57-2.62q-.25-17.87-.47-35.74-.06-4.79-.06-9.59c0-.89-.2-1.48-1.26-1.52a110.93,110.93,0,0,0-13.06,0c-.69.05-1.08.37-1.11,1.06s0,1.36,0,2Q590,467.14,590,480.94Z" transform="translate(-58.86 -23.5)"/><path class="cls-2" d="M404.78,191.56c3.83-5.09,7.37-9.79,10.89-14.5,6.44-8.61,12.74-17.33,19.77-25.47A289,289,0,0,1,473,114.88a177.34,177.34,0,0,1,30.44-20.12c8.41-4.28,17.19-7.65,26.55-8.79,14.31-1.75,26.36,2.91,35.39,14.35,6.52,8.27,10.2,17.9,12.7,28.05,3.61,14.63,4.22,29.49,3.49,44.44a142.53,142.53,0,0,1-3.28,23.85c-1.82,8.21-3.28,16.51-5,24.73-1.22,5.67-2.66,11.3-4.1,16.92-.22.87-.2,2-1.24,2.54-1-1.11-.89-2.56-1.12-3.84-1.15-6.38-2-12.82-3.28-19.17-2.42-12-6.37-23.36-14.49-32.8a38.1,38.1,0,0,0-22.29-12.62c-9.66-1.88-18.85,0-27.85,3.34-11,4.09-20.69,10.4-30.08,17.26-17.4,12.71-33.92,26.4-48.35,42.51a408.41,408.41,0,0,0-34.76,45q-24.83,37-47.45,75.43a298.58,298.58,0,0,0-20.88,42c-2.34,5.94-4.35,12-6.11,18.12-.18.63-.08,1.57-1,1.52-1.15-.06-.8-1.12-.84-1.82a42.11,42.11,0,0,1,.87-10.39c1.84-9.6,3.54-19.22,5.53-28.78,1-4.63,2.37-9.17,3.7-13.71,2.94-10,5.84-20,9-30a367,367,0,0,1,15.57-40.25,423.13,423.13,0,0,1,26.15-48.92c3.43-5.52,7.5-10.76,11.23-16.06a74.11,74.11,0,0,0,5-8.83,19,19,0,0,0,.89-2.92,23.41,23.41,0,0,0-.14-4.16A53.41,53.41,0,0,0,372,183.43c-3.32-3.25-6.63-6.52-10.82-8.71-5.93-3.1-12.27-4-18.86-3.5-9.83.68-18.84,4-27.56,8.34C299.55,187,286,197,272.85,207.54c-16.63,13.37-30.66,29.24-43.77,46-19.2,24.53-35.51,51-51.68,77.51-9.61,15.78-18.81,31.79-26.87,48.42a243.15,243.15,0,0,0-13.21,32.14c-.64,2-1.26,4-2,6.24-.95-1.07-.65-2-.52-2.94,1.24-9,2.46-18,3.73-27a171.17,171.17,0,0,1,5.48-24.31c3.24-11,6.43-22.08,9.95-33a359.15,359.15,0,0,1,20.66-50.07,659.1,659.1,0,0,1,53.26-88.74,485.15,485.15,0,0,1,38.19-47.52c13-14.16,27.21-27,43.36-37.56,9.06-5.91,18.2-11.73,28.3-15.79,2.86-1.15,5.78-2.19,8.71-3.14a28.86,28.86,0,0,1,6-.86c8-.45,15.12,1.39,22.36,4.27a43.11,43.11,0,0,1,22.86,20.82,70.17,70.17,0,0,1,6.79,21.48,169.14,169.14,0,0,1,1.29,40c-.38,5.12-.53,10.26-1.21,15.35A5.07,5.07,0,0,0,404.78,191.56Z" transform="translate(-58.86 -23.5)"/><path class="cls-3" d="M724.18,100a40.47,40.47,0,0,1-.26,4.26c-1.05,6.48-2.1,13-3.37,19.4s-2.65,12.65-4.23,18.91q-3,12.06-6.74,23.94c-3.77,12.07-8.1,23.94-12.88,35.65a602.72,602.72,0,0,1-41.49,83.17,512.53,512.53,0,0,1-30.06,44.49,458,458,0,0,1-36.93,43.3,421.31,421.31,0,0,1-31.18,29.6,144.9,144.9,0,0,1-33.26,21.52,75.42,75.42,0,0,1-18.35,6.06c-9.93,1.69-19.7,1.19-28.42-4.71-7.25-4.9-12.28-11.68-15.9-19.57a96.21,96.21,0,0,1-6.88-22.36,162.47,162.47,0,0,1-2.42-40.17,179.91,179.91,0,0,1,2.74-23c1.27-6.63,3-13.18,4.33-19.8a194.39,194.39,0,0,1,5.87-22.09,4.48,4.48,0,0,1,1.75-2.7c0,3.11.72,5.69,1,8.34a125.39,125.39,0,0,0,1.93,14.08c2.54,11.28,6.07,22.17,13.32,31.48a38.16,38.16,0,0,0,19.65,13.19,40.35,40.35,0,0,0,18,1.33c12-1.83,22.69-6.8,32.69-13.35A318.94,318.94,0,0,0,601,292.78a280.84,280.84,0,0,0,26.9-30.85c16.55-21.63,30.81-44.79,45.25-67.83,9.3-14.84,18.86-29.51,27.56-44.72,7.73-13.52,14.8-27.37,20.16-42,.91-2.5,1.71-5,2.56-7.55Z" transform="translate(-58.86 -23.5)"/><path class="cls-4" d="M547.85,258.72a30.77,30.77,0,1,1-29.94-30.78C533.69,228.33,548,241.36,547.85,258.72Z" transform="translate(-58.86 -23.5)"/></svg>